<svg width="16" height="16" xmlns="http://www.w3.org/2000/svg" fill="none" class="icon-holo">
    <g fill="#9C9C9C"><!--fill="#121212"-->
        <path fill-rule="evenodd" d="M11.087 3.598a1.48 1.48 0 0 0 .146-.3c.27-.76-.112-1.6-.853-1.876a1.417 1.417 0 0 0-1.828.874c-.27.76.112 1.6.853 1.876.502.187 1.04.068 1.418-.266l2.459 2.211a1.01 1.01 0 0 0-.087.642l-1.066.322a4.8 4.8 0 0 0-2.393-1.96 4.683 4.683 0 0 0-4.12.411c-2.364-.3-4.218.175-4.64 1.361-.603 1.703 1.972 4.227 5.752 5.638 3.78 1.412 7.335 1.176 7.94-.527.364-1.026-.428-2.352-1.944-3.552a5.021 5.021 0 0 0-.387-1.006l1.016-.307a.96.96 0 0 0 1.7-.232 1 1 0 0 0-.579-1.272.948.948 0 0 0-.94.163l-2.447-2.2Zm1.53 7.79c-1.3.28-3.245.034-5.26-.761-1.608-.634-2.955-1.498-3.832-2.38a4.894 4.894 0 0 1 1.592-2.361c-1.578-.099-2.739.24-3.003 1.002-.445 1.283 1.818 3.28 5.054 4.46 3.236 1.18 6.22 1.097 6.664-.186.21-.603-.18-1.364-.988-2.124.109.767.043 1.57-.227 2.35Z" clip-rule="evenodd">
        </path>
        <path d="M10.831 13.787c-1.259-.052-2.724-.353-4.224-.913a15.042 15.042 0 0 1-3.05-1.536c.453 1.358 1.48 2.501 2.897 3.03a4.691 4.691 0 0 0 4.377-.58Z">
        </path>
    </g>
</svg>